<svg xmlns="http://www.w3.org/2000/svg" viewBox="0 0 228 93.15"><title>ShopeePay logo - Brandlogos.net</title><path d="M371.88,410.17v-55a2.06,2.06,0,0,1,2.06-2.06h18.56a19,19,0,0,1,0,37.94H379.07v19.09a2.06,2.06,0,0,1-2.06,2.06h-3.06a2.06,2.06,0,0,1-2.06-2.06Zm7.19-26.57h13.35a11.65,11.65,0,0,0,8.28-3.41,11.53,11.53,0,0,0,3.43-8.23,11.67,11.67,0,0,0-11.67-11.64H379.07Z" transform="translate(-270 -337.42)" style="fill:#ee4d2d"/><path d="M458.78,428.71l14.05-24.14L456,377a1.24,1.24,0,0,1,1.06-1.88h6.81l13.53,21.95,13.07-21.95h6.29a1.24,1.24,0,0,1,1.06,1.87l-31.67,53.56h-6.31a1.24,1.24,0,0,1-1.07-1.86Z" transform="translate(-270 -337.42)" style="fill:#ee4d2d"/><path d="M443,409.89v-3.17l-1,.87A19.05,19.05,0,0,1,429.76,412a18.57,18.57,0,0,1-18.7-18.41c0-10.15,8.39-18.12,18.7-18.12a19,19,0,0,1,12.17,4.37l1,.87v-3.17a2.06,2.06,0,0,1,2.06-2.06h4.28V412H445a2.06,2.06,0,0,1-2.06-2.06ZM429.7,382.28A11.54,11.54,0,0,0,418,393.57a11.75,11.75,0,0,0,23.5,0A11.51,11.51,0,0,0,429.7,382.28Z" transform="translate(-270 -337.42)" style="fill:#ee4d2d"/><path d="M344.13,353H281.92a3.43,3.43,0,0,1-3.43-3.43A1.56,1.56,0,0,1,280,348H335.8a1.56,1.56,0,0,0,1.56-1.56v-5.62a3.43,3.43,0,0,0-3.73-3.42l-56.5,5A7.8,7.8,0,0,0,270,350.2V404.5a7.8,7.8,0,0,0,7.8,7.8h66.33a7.8,7.8,0,0,0,7.8-7.8V360.83a7.8,7.8,0,0,0-7.8-7.8" transform="translate(-270 -337.42)" style="fill:#ee4d2d"/><path d="M324.91,393.83a10.86,10.86,0,0,1-6.75,8.85,17,17,0,0,1-7.2,1.23,23.31,23.31,0,0,1-9.81-2.52,24.39,24.39,0,0,1-3.93-2.69c-.28-.23-.42-.44-.15-.81l1.59-2.32a.63.63,0,0,1,1-.1l.49.38A19,19,0,0,0,311,400c5.27-.07,9.09-2.42,9.77-6,.75-4-2.44-7.44-8.59-9.35a74.78,74.78,0,0,1-7.78-3.09q-6.43-3.75-6-9.81c.43-5.59,5.65-9.78,12.27-9.8a22.44,22.44,0,0,1,8.71,1.78,23,23,0,0,1,3.41,1.84.67.67,0,0,1,.24,1c-.26.43-1,1.65-1.35,2.15-.23.34-.51.39-.92.13a18.34,18.34,0,0,0-10-3.09c-4.52.09-7.93,2.76-8.15,6.42-.06,3.3,2.47,5.7,7.84,7.54,11.08,3.54,15.28,7.69,14.48,14.21" transform="translate(-270 -337.42)" style="fill:#fff"/></svg>